<?xml version="1.0" encoding="UTF-8"?>
<!-- Generator: Adobe Illustrator 27.0.0, SVG Export Plug-In . SVG Version: 6.00 Build 0)  -->
<svg version="1.1" id="Layer_1" xmlns="http://www.w3.org/2000/svg" xmlns:xlink="http://www.w3.org/1999/xlink" x="0px" y="0px" viewBox="0 0 260 300" style="enable-background:new 0 0 260 300;" xml:space="preserve">
<style type="text/css">
	.st0{fill:#FFFFFF;}
	.st1{display:none;}
	.st2{display:inline;}
	.st3{fill:#c8a84b;}
	.st4{fill:#c8a84b;}
	.st5{display:inline;fill:none;}
	.st6{fill-rule:evenodd;clip-rule:evenodd;fill:none;stroke:#c8a84b;stroke-width:8;}
	.st7{fill:none;stroke:#c8a84b;stroke-width:8;}
</style>
<g id="Layer_2_00000146497066822917497000000003799723794808397489_">
	<path fill="none" stroke="#c8a84b" stroke-width="8" d="M0,0v161c0,60.6,67.1,127.5,130,139c62.9-11.5,130-78.4,130-139V0H0z"/>
</g>
<g id="Layer_2_00000151545794763845193870000002700991010033020572_" style="display:none;">
	<path class="st0" d="M4.5,4.5v156.2c0,58.8,64.8,123.7,125.5,134.8c60.7-11.1,125.5-76,125.5-134.8V4.5H4.5z"/>
</g>
<g class="st1">
	<path class="st2" d="M203.6,16c-1.4,0-2.3,0.4-2.3,0.4s2.6,1.8,0.9,8.9c-1.7,7.1-15.2,20.6-15.2,20.6s1.5-3.3,2.8-11   s-2-13.7-3.9-15.5c-1.8-1.8-7.9-1.1-7.9-1.1s2.6,3.6,2.4,7.5c-0.2,3.8-5.9,12.8-5.9,12.8s-0.2-6.9-0.2-9.1s-6.8-8.2-8.7-8.9   c-1.8-0.7-3.5,0-3.5,0s1.8,1.8,2,6.9s-2.4,12.2-3.5,13.9c-1.1,1.6-3.7,10.1-3.7,10.1s-1.8-4.4-2.2-6.4s-4.2-3.1-4.2-3.1l1.1,2.4   c1.1,2.4,0,6.4-0.4,9.5s-13.5,15.5-14.6,17.3s-2,9-1.1,11s0.2,0.6,0.2,4.9c0,4.4,4.8,9.5,8.9,8c4-1.4,4.2-4.4,7.4-7.3   s4.8,0,4.6,3.8s-10,9.3-12.4,11c-2.4,1.6-13.8,0.7-13.8,0.7s-1.5-4.6-1.7-7.8c-0.2-3.3,0.8-8.6,0.8-8.6s0.4-0.2,2,0.9   s2.2,4.2,2.2,4.2s0.4-3.5-0.2-6.2c-0.6-2.7-0.8-12-0.4-13.8c0.4-1.8,1.1-5,1.1-5s1.8,0.6,3.7,0c1.9-0.5,2.8-2,2.8-2s-2-0.2-3.3-1.1   s-3.5-3.3-3.9-5.1s-0.2-1.8-0.2-1.8s6.3-0.4,8-1.6c1.6-1.3,2-3.4,2-3.4s-1.6,0.7-4,0.7s-3.5-1.1-4.1-2.4s-3.3-0.9-3.3-0.9v-1.1   c0-1.1-1.7-2.7-1.7-2.7l0.6-0.2c0,0,3.3-1.1,4.8-3.1s1.5-4,1.5-4s-0.9,0.9-3.3,1.8c-2.4,0.9-8.9,0-8.9,0l0.6-0.9   c0.6-0.9,0.4-3.8,0.4-3.8s-0.6,0.7-1.7,1.5c-1.1,0.7-5.7,0.5-5.7,0.5s-1.5-1.3-2.4-2.2s-3.5-2.9-4.8-4.4s-1.3-4.6-1.3-5.5   s-1.8,0-2.6,1.1c-0.8,1.1,0,6.7,0,6.7l-1.8-0.2c0,0-1.6-2.3-2-3.8c-1.3-4.4-1.4-4.4-0.9-8c0.1-0.8-4.1,1.8-4.4,4.6   c-0.4,2.7,1.5,8.4,1.5,8.4S96.5,34.3,95,35s-2.8,2.2-2.8,2.2s-2.2-0.6-6.3,2.2c-4.1,2.7-5.7,6.8-4.8,10.8c0.9,4,4.8,4.4,4.8,4.4   s-0.2-1.7,0.6-2.8c0.7-1.1,2.8-0.7,4.6-0.4s3.3,1.8,3.3,1.8s-6.4,2.5-10.9,3.6c-4.4,1.1-8,0-9.2-1.6c-1.3-1.6,0-3.8,1.1-4.9   c1.1-1.1-2-1.7-4-0.4s-3.2,4.8-2,8.8c1.1,4,8.7,4.2,10.4,4.2c1.6,0,9.4-2.2,10.7-2.9c1.3-0.7,6.4-2.4,7.9-2.7   c1.5-0.4,3.5,0.2,2,0.4s-6.1,1.8-6.8,2.8c-0.7,0.9-1.5,2.4-0.7,3.3c0.7,0.9,1.5-0.9,2-1.8c0.6-0.9,4.4-1.4,8.2-0.9   c3.7,0.6,6.4,2.6,7.2,4.4c0.7,1.8-0.6,4.2-1.7,6s-4.4,1.3-6.4,1.6c-2,0.4-3.4-1.3-3.4-1.3l-0.9-5.3c0,0-1.3,0.6-1.5,2.2   s1,5.1,1,5.1l-1.9,0.7c-1.8,0.7-12.9,1.1-13.8,0s-2.1-4.4-2.1-4.4s-0.6,1.4-0.4,3.8s1.3,2.7,1.3,2.7s-0.9,0.6-2.2,0.7   c-1.3,0.2-2.6-0.5-2.6-0.5s-2.4-2.2-4.1-4.2S58.1,54.9,56.1,52s-1.8-4.2-1.8-6.6c0-2.4-1.5-4.7-1.7-6.7s0.4-7.3,0.4-7.3l1.1-0.4   c1.1-0.4,2.2-2.6,1.8-4c-0.4-1.5-2.2-2.2-2.2-2.2s0.7-3.1-0.6-4.7c-1.3-1.6-5-2-7.2-1.5s-1.5,4.2-1.5,4.2l0.6-0.9   c0.6-0.9,2.8-0.6,3.5,0.7c0.7,1.3,0.2,2.4,0.2,2.4s-2.2,0.6-2.2,2c0,1.5,0.9,3.3,0.9,3.3v3.1c0,0-0.9-0.5-1.7-1.5   c-0.7-0.9,0.2-2.5,0.2-2.5s0-2.6-0.6-3.3c-0.6-0.7-2.6-0.7-2.6-0.7s-0.2-1.3-0.9-2.2c-0.7-0.9-3.5-1.8-5.5-1.6   c-2,0.2-5.2,2-5.2,3.6s2.5,2.7,2.5,2.7L33.4,27c-0.2-0.9,1.1-2.2,3.5-1.6c2.4,0.5,1.6,1.5,1.6,1.5s-1.6,1.3-2.4,2   c-0.7,0.7,0.4,2.5,1.5,3.5c1.1,0.9,2.6,0.4,2.6,0.4s0.6,0.7,1.3,1.5c0.8,0.6,1.1,2.6,1.1,2.6h-4.1v-0.7c0-0.7-3-2.4-4.2-2.7   c-1.3-0.4-2.2,0.9-2.2,0.9s-2.4,0.2-3.5,1.1c-1.1,0.9-1.3,3.8-0.7,6.4c0.6,2.6,3.3,2.2,3.3,2.2l-0.6-0.5c-0.6-0.4-0.9-2.2-0.7-3.3   s2-0.4,2-0.4l-0.2,1c-0.2,0.9,1.1,2.4,3.1,2.5c2,0.2,2.6-0.5,2.6-0.5l1.7,0.4c1.7,0.4,5.6-0.2,5.6-0.2l0.6,0.7c0.5,0.7,0.5,8,0.5,8   s-2.2,2-2,3.4c0.2,1.5,2.6,1.6,2.6,1.6s-0.2,2.8-2.2,3.1s-4.6-4-4.6-4s1.1,3.8,2.8,5.1c1.6,1.3,5.4,0.6,7.2-0.4   c1.8-0.9,1.8-3.4,1.8-3.4l0.6-0.8c0.6-0.7,0.2-2,0.2-2s2.6,6.8,3.5,9.1c0.9,2.4,9.4,17.9,9.4,17.9c-0.2,0.2-2.6,0.4-4.8,0.9   c-2.2,0.6-1.5,2-1.3,4.6s3.3,2,3.3,2s-1.4-2.8-1.3-3.7c0.2-0.9,4.2-1.1,5,0c0.7,1.1,6.1,1.1,6.1,1.1l-2.2,1.3   c-2.2,1.3-7.6,6.9-10.5,6.9c-3,0-4.4-4.6-4.4-4.6s-1.1,4.6-0.2,6.2c0.9,1.6,6.6,1.5,6.6,1.5s-4,2.2-7.6,1.4   c-3.5-0.7-9-3.3-12.5-3.5s-8.3,0.4-10,6.8s2.2,8,4.1,7.5c1.8-0.5,3.3-3.3,3.3-3.3s-1.1,1.1-3.5,0.7s-0.7-4.6,3.2-6.2   s8.1,2.6,10.5,4.6c2.4,2,9.4,1.3,9.4,1.3s-2.4,2.8-3.7,4.4s-12,4.4-14.4,8.8c-2.4,4.4,1.5,7.8,2.8,8.2c1.3,0.4,2.6-2,2.6-2h-1.8   c-2,0-1.3-3.5,0.6-5.7c1.8-2.2,7.8-2.4,9.8-2.7c2-0.4,3.1-2.2,3.7-3.6c0.6-1.5,3.7-1.5,3.7-1.5l-0.5,1.8c-0.6,1.8-2,6.8-5,9.3   c-3,2.6-10.5,4.6-10.5,4.6s7.2,1.3,9,0.7s6.5-3.6,6.5-3.6s0.2,3.4-1.1,6.4c-1.3,2.9-5.9,10.4-7.8,12.4c-1.8,2-3.3,2.7-5.2,4   c-1.8,1.3-3.7,3.3-5.5,5.8c-1.8,2.6-5.2,1.3-6.3,1.1s-1.7,1.1-1.7,1.1s-2.4-1.8-5.2-0.2s-1.9,5-1.1,7.1c0.7,2.2,3.3,1.8,3.3,1.8   s-1.5-1.6-1.1-3.5c0.4-1.8,1.8-1.3,1.8-1.3s0,1.5,1.3,2.6s3.1-1.3,3.1-1.3s0.2-0.4,0.9,0s2-0.2,2-0.2l-2.6,3.6c0,0-1.3-0.2-2.6,0   s-2.8,1.1-3,2.2c-0.2,1.1,0.5,1.3,0.5,1.3s-0.9,1.3-0.5,4.7c0.4,3.5,4.1,6,6.1,6.6c2,0.5,3.1-2.4,3.1-2.4l-1.3,0.4   c-1.3,0.4-1.7-1.1-2-2.9c-0.4-1.8,0.4-1.8,0.4-1.8s2.4-1.1,3.4-2.8c0.9-1.6,0.2-2,0.2-2l1.8-2.7c0,0-0.2,5.3-0.4,6.6   s-1.8,2.7-2,4.4c-0.2,1.6,2.8,1.5,2.8,1.5s0.5,3.1,1.5,4.4c0.9,1.3,6.3,0.9,7.8,0s1.8-3.1,1.8-3.1l-1.3,1.1   c-1.3,1.1-3.3-0.2-3.7-0.9s0.8-1.6,0.8-1.6s0.7-2,0.5-3.1s-2.2-2-2.2-2s0.2-3.5-0.2-5.1s0.6-5.7,0.6-5.7s2.2-2.7,4.1-3.3   s3.3,1.3,4.4,1.1c1.1-0.2,0.9-2.8,0.9-2.8l0.2,0.8l1.5-0.9c0,0,0.9,0,2.2,1.1s-0.2,6-0.2,6s2.4-2.2,2.8-4.2s-0.4-4.2-0.4-4.2   l0.6-0.9c0.6-0.9-1.7-3.1-3-4.2c-1.3-1.1-5.7-0.7-5.7-0.7s3.9-5.8,5.7-8.4c1.8-2.6,8.8-8.8,8.8-8.8l3.2-1.6l-0.4,2.2   c0,0,2.8-2.2,4.2-3.8c1.5-1.6,1.7-3.5,1.7-3.5v2.2c0,2.2-1.3,9.1-2.6,13.9c-1.3,4.7-8.1,5.8-8.1,5.8s6.4,1.1,10.5-1.5   s6.5-8.6,6.5-9.8s0.9-3.3,0.9-3.3v3.6c0,3.6,4.8,10.2,6.8,11.3s5.4-0.6,5.4-0.6l-1.5-0.2c-1.5-0.2-4.3-2.4-5-4.8   c-0.8-2.4,0-8.4,0-8.4s1.3,1.6,2.4,2.8c1.1,1.1,4.6,0.5,8.1,0.7s9.1,2.4,9.1,2.4s-2.2,5.1-2,8.2c0.2,3.1,4.2,1.8,4.2,1.8   s-0.7,0.2-1.8-2.2c-1.1-2.4,5.4-2,8.1-1.1s-4.2,3.8-8.5,7.7c-4.3,3.8-5.9,10.4-5.9,10.4s-5.6,1.1-9.2,3.4c-3.7,2.4-8.1,7.9-8.1,7.9   l-4.4,0.2c0,0-1.1-0.7-2-2s-1.1-2.6,1.1-3.3s0.5,3.1,0.5,3.1s1.1,0,2.6-2.4s-0.7-4.6-2.8-5.5c-2-0.9-4.8,0.4-6.5,2.2   c-1.6,1.8,0.4,8.6,0.4,8.6s-1.8-0.5-2.6-1.8c-0.8-1.3,0.9-3.8,0.9-3.8s-2.2,0-3.5,1.1s-0.9,6.6-0.9,6.6s-7.6,3.4-8.9,6.2   c-1.3,2.7-1.3,7.3-1.3,7.3s-3.3,0.8-5.7,0.8s-3-5.5-3-5.5s-1.7,4.4-0.6,6.9c1.1,2.6,6.8,3.1,8.3,3.1s2-3.1,2-3.1s0.2,1.3,1.5,3.5   s4.8,1.8,7.8,1.4c2.9-0.4,1.8-4.9,1.8-4.9l-0.4,1.1c-0.4,1.1-3,1.1-3.5,0c-0.6-1.1-0.2-1.8-0.2-1.8s1.8,0,3.2-1.1   c1.3-1.1,0.6-3.4,0.6-3.4s-0.2,1.4-1.9,2.2c-1.6,0.7-1.3-2-0.6-4c0.8-2,5.9-0.6,5.9-0.6v1.7c0,1.4,1.3,1.8,1.3,1.8   s-0.2-2.4,2.2-1.8c2.4,0.5,1.3,5.1,0.9,7.1s-2.2,2.6-3.3,2c-1.1-0.6-1.7-1.8-1.7-1.8s-0.9,2.4,0.4,4c1.3,1.7,5.9,0.2,5.9,0.2v2.6   c0,2.2,0.7,3.6,0.7,3.6s-4.1,2-6.1,3.8s-3.9,4.9-3.9,6.9s-1.9,1.8-2.8,3.1s-1.8,3.8-1.8,3.8s-2.2,0.5-4.1,0.5   c-1.8,0-2.6-4.4-3.7-4.6c-1.1-0.2-2.8,0.9-2.8,0.9l-1.8-0.4c-1.9-0.4-3.7,1.1-4.3,3.5s2,4.6,2,4.6s-0.7-1.8,0-2.9   c0.8-1.1,2-0.2,2-0.2l0.4,1.5l0.4,2c0,0-0.9-0.9-1.8,0c-0.9,0.9-1.8,6.2,0.2,9.1c2,2.9,3.9,1.8,3.9,1.8l0.7-0.2   c0,0-2.4-1.1-2.4-2.9c0-1.8,0.6-1.6,0.6-1.6s1.1,0.6,2,1.1c0.7,0.4,1.2-0.3,1.4-0.7l-0.8,1.8c-0.9,2-0.2,3.1-0.2,3.1   s-0.9,3.3,1.5,6.4c2.4,3.1,6.8,2.2,9,1.8s2.6-2.9,2.6-2.9l-1.1,0.5c-1.1,0.6-4,0.4-5-0.5c-0.9-0.9-0.8-1.6-0.8-1.6s3.7-0.4,4.4-1.3   c0.8-0.9,0-2.8,0-2.8s0.9-0.4,2-0.5c1.1-0.2,0.4-3.5,1.1-5c0.7-1.4,3.3,0.4,4.4,1.5s4.4-0.7,4.4-0.7s0.2,0.9,0.4,2.2   c0.2,1.3-0.9,2.8-0.9,2.8l1.4-0.2c1.5-0.2,3.7-4.2,4.3-5.6c0.6-1.5-0.6-4.8-0.6-4.8v-0.7c0-0.7-1.5-1.5-1.5-1.5s2.4,0.8,3.5,0.8   s1.5,1.3,3.1,2.2c1.7,0.9,2.6,0,2.6,0s-1.5,0.2-1.5-0.9c0-1.1-0.9-2.9-0.9-2.9l1.1-0.6c1.1-0.6,2.9-0.4,4.6,1.3   c1.7,1.6,3.7,0.7,3.7,0.7s-1.6-4-1.3-5.6c0.4-1.6,2-1.3,2-1.3l-0.4,1.4c-0.4,1.5,0.5,3.8,0.5,3.8s-0.2-0.4,1-2c1.1-1.6,0,0,0.5,0.9   c0.6,0.9,5.4,1.4,7.2,0.4c1.8-1.1,1.1-5.5,1.1-5.5l1.5,1.6c0,0,2.8-3.3,1.5-6.8s-1.5-7.1-1.5-7.1s3.9-0.2,5.7,0.2   c1.9,0.4,6.7,4,6.7,8.2s-6.5,2.8-6.5,2.8s5,3.3,7.4,1.6c2.4-1.6,2.8-6.2,3.1-9c0.4-2.7-4.4-8.4-4.4-8.4s2-0.2,3.5-2   c1.5-1.8,1.3-4.6,0.2-8.2c-1.1-3.7-4.8-3.7-5.9-1.8c-1.1,1.8,0,2.4,0,2.4l0.4-1.1c0.4-1.1,1.7,0.2,2.4,2.9c0.8,2.7-2,3.3-4,1.8   s-0.8-5.3-0.6-7.1c0.2-1.8,0.4-2,1.5-3.8s3.1-7.8,3.7-10.6c0.6-2.7,2.8-5.5,4.1-7.3s1.5-3.7,2.2-6.4c0.8-2.8,3-7.1,3-7.1l1.8,2.6   c1.9,2.6,2,10.6,2.6,13s3.5,5.3,3.5,5.3s0,0.2,0.4,2s-0.2,0.8-0.4,3.5s1.6,8.2,1.6,8.2v-1.1c0-1.1,1.5-1.8,1.5-1.8s1.5,5.7,0.9,7.9   c-0.5,2.2-2.9,1.8-2.9,1.8s1.6,1.1,2.8,1.1s2.2-1.8,2.2-1.8l0.6,7.5c0,0-4.6,0.9-6.3-1.1s-1.5-5.3-1.5-5.3s-3,3.5-3,6.4   s2.6,3.8,2.6,3.8s-1.7,1.4-3.3,2.7c-1.7,1.3-5,5.7-5.9,12.8s5.9,12.4,10.4,12.8c4.4,0.4,7.6-4.6,7.6-6.4c0-1.8-1.3-4.6-1.3-4.6v3.3   c0,2.6-4.3,3.8-7,3.3c-2.8-0.6-3.3-4.2-3.3-4.2s3.5,1.3,5.4,0c1.8-1.3,0.7-4.4,0.7-4.4s0,2.6-2.8,2.6s-2.6-4-0.9-7.5   c1.7-3.5,12.6-1.8,14.8-2.8c2.2-0.9,3.3-5.1,3.3-5.1s1.8-0.2,2,4.6c0.2,4.7-6.3,5.1-6.3,5.1l1.3,1.3c1.3,1.2,7.6,0.5,9.4-1.7   c1.9-2.2,2.8-11.1,2.6-13c-0.2-1.8,2.4,0,3.5,0.8c1.1,0.7,1.1,4.7,1.5,6.4s4.2,0.8,4.2,0.8l-1.1-0.2c-1.1-0.2-1.5-3.5-0.6-5.3   c1-1.8,3.2-0.6,3.2,2s1.3,2.9,2.8,3.6c1.5,0.7,0,3.5-0.9,5.3s1.3,9.6,1.3,9.6s-1.7-0.7-1.9-1.6c-0.2-0.9-2.2,0-2.2,0   s-3.3-1.8-5.9-1.6c-2.6,0.2-5.2,3.3-5.4,7c-0.1,1.9,2.8,3.1,2.8,3.1s0.3-1.1,0.3-2.6c0-1.4,1.5-1.4,2.6-1.3c1.1,0.2,0,2.4,0,2.4   s0.1,0.7-1,1.4s-0.8,1.8-0.8,1.8s-1.8-0.7-3.3,3.8c-1.5,4.6,2.6,7.3,4.1,8.6s3.7,0.2,3.7,0.2s-0.9,0-1.8-0.8   c-0.9-0.7-0.4-2.2-0.4-2.2s2.8,1.1,4.8,0.5c2-0.5,1.5-2.2,1.5-2.2l1.8,1.4c1.8,1.5,5.5,2.4,8.7,2c3.1-0.4,4.1-3.4,4.1-3.4   s-4.6,1.3-5.2,0.9c-0.6-0.4-0.4-1.2-0.4-1.2s3.1-1.7,3.3-3.1c0.2-1.5-0.9-2.2-0.9-2.2l0.4-2.9c0,0,1.3,0.7,2.4,1.5   c1.1,0.7,5.9,0.9,8.3,0.5c2.4-0.4,2.6-3.6,2.6-3.6l-1.3,0.6c-1.3,0.6-2.9-1.1-2.9-1.1l0.9-0.7c0.9-0.7-0.4-2.4-0.4-2.4   s-0.4-1.6-0.4-4.2c0-2.6,0-6.6,3.3-7.5s2.2,5.5,2.2,5.5s3.1-1.8,3-4.6c-0.2-2.8-2.6-5.5-2.6-5.5s3.3-2.8,5-1.8   c0.8,0.4,0.9,1.1,0.9,1.6c0.4-1.3,0.8-3.3,0.6-4.7c-0.4-2.2-3.5-1.8-3.5-1.8l0.2-1.6c0.2-1.6,3.3-1.3,3.1,0.6   c-0.2,1.8,3.7,2.2,3.7,2.2l-0.9-0.7c-0.9-0.7,1.1-6.2-0.2-5.6c-1.3,0.5-3.7-0.6-3.3-3.7c0.4-3.1,2.2-2.9,3.1-3.6s3.7,0.6,5-0.2   c1.3-0.7,0.2-2.9,0.2-2.9s0,0.8-1.4,1.7c-1.5,0.9-5-7.9-7.2-8.4c-2.2-0.6-6.4,1.1-6.4,1.1s0-1.8-0.4-3.6s-4.8-2.6-4.8-2.6   s0.6,0.7,2,1.4c1.5,0.8,0.4,2-0.2,3.8c-0.6,1.8-6.3-0.4-5.9-1.4c0.4-1.1,1.8-1.8,1.8-1.8s-2,0.7-2.2-0.7c-0.2-1.5-1.6-1.5-3.5-0.9   s-4.8-0.4-4.8-0.4s0.9-0.6,0.2-1.8c-0.7-1.3-2.6-1.8-2.6-1.8l0.7,0.7c0.8,0.7,0.2,2.6-0.9,2.9c-1.1,0.4-1.5-0.9-1.1-2.2   s-3.1-4.9-3.1-4.9s8.5,1.8,12.4,2s13.3-1.1,14.6-1.8s4.2,0.2,5.7,0.2s2.4,1.3,3,3.3s2.8,0.2,2.8,0.2s-0.8,0.2-1.9-0.2   c-1.1-0.4,1.5-5.8,0.9-6.6c-0.5-0.7-3.7-0.6-3.7-0.6s3.5-1.4,5-5.3c1.5-3.8,0.4-10.2-3-14.8c-3.3-4.6-13.3-1.4-16.3-1.1   c-3,0.4,0.8-4.9,2.6-6.4c1.8-1.4,3.3,0.9,5.2,0.7s1.3-2.2,1.9-4.4c0.5-2.2,7.9,0,10,0.4s3,5.7,3,5.7s1.5-2.6,1.1-4.8s-3-2.4-3-2.4   s4-4.6,5.7-4.6c1.6,0,3,4.2,3,4.2s0.7-6.6,0.6-8.4c-0.2-1.8-4.1-0.2-4.1-0.2s1.1-0.6,2.2-2c1.1-1.5,0-6.2,0-6.2s2.2,2,3.4,2.7   c1.1,0.7,1.8-3.3,1.8-3.3l-1.7,0.6c-1.6,0.5-1.5-4-3-3.5s-1.5-3.3-1.5-5.7c0-2.4,0-3.3,1.9-2.1c1.5,0.9,1.7,1,1.7,0.9   c0.1-1.9,0.3-3.4-2.8-3.9c-3.2-0.6-4.2,2-5,4.7c-0.7,2.8-3.9,5.5-5.9,5.7s-1.3-1.1-1.3-2.4c0-1.2-2.2-3.6-2.2-3.6v1.3   c0,1.3-0.4,2.4-2.2,4.6s-2.6,2.9-2.6,2.9s-2.4-0.9-5.2-1.8s-12.5-9.2-12.5-9.2s5,0.8,8.1,1.1c3.2,0.4,12,0.7,16.4-0.2   c4.4-0.9,12.2-5.1,13-8.2c0.7-3.1-0.8-8.2-2.8-8.8c-2-0.6-2.8,1.8-3.3,3.1c-0.6,1.3-6.4,1.3-10.7,0.9c-4.2-0.4-15.3-3.3-15.3-3.3   s8.3-1.1,12.2-1.4s17.2-7.9,20-11.2c2.8-3.3,2.6-10.2,1.5-13.3c-1.1-3.1-4.8-2.2-4.8-2.2l0.5,0.8c0.6,0.7-0.7,4.2-4.4,7.1   s-20.5,3.8-20.5,3.8l3.7-2.4c3.7-2.4,18.1-13.3,21.1-18.2s2.6-11.9,1.8-16.8c-0.7-4.9-5.7-4.9-5.7-4.9v1.3c0,1.3-1.1,6.2-4.8,10.4   s-20.2,14-20.2,14s14.6-19.7,16.4-25.4c1.9-5.7,0.6-11.9-3.5-16.4C207.9,16.4,205.4,15.9,203.6,16L203.6,16z M212.9,215.4   c-0.2,0.7-0.3,1.1-0.3,1.1S212.9,216,212.9,215.4z M180.7,121.4c0,0,11.8,7.1,19.9,9.9c0.3,2.7,3.1,5.3-0.4,6.5   C188.8,131,187.3,128.1,180.7,121.4z M171.6,132.6c6.9,6,11.2,11.3,21.3,13c-1.8,2-2.2,6.4,0.4,8c5.8,3.5,9.5,1.9,14.2,2.1   c3,0.1,5.4,2.8,5.9,5.6c0.6,2.9-3.2,4.8-5.7,5.7c-2.8,1.1-5.4,1.3-8.4,1.6c1-2.8,0.9-7-2.8-8.3c-0.6,4.5-4.3,6.5-8,6.2   c-7.3-0.6-16-6.1-19.9-11.1c1.7,0.3,3,0.4,3.9-0.5l-1.6-3.8c11.3,4.7,12.5,1.3,16.7,2.6C183.1,144.4,172.6,141.6,171.6,132.6   L171.6,132.6z"/>
	<g class="st2">
		<path class="st3" d="M108.8,26.6c0,0-0.8,2.1-0.6,5.3c0.2,3.2,8.3,8.9,8.3,8.9s-1.5,0-3.3-0.9s-4.9-4.5-6.2-5.1    c-1.3-0.6-7.7,0.4-9.8,0.6c-2.1,0.1-3.2,2.1-3.2,2.1c0.3,0.1,1.9,1.6,3,2.6s0.3,2.2-0.8,5.4c-1,3.2,1.4,3,3,3.7s9.3,5.4,10.4,7.3    c1,1.9,0.6,6,0.6,6s2.5-0.2,0.8,6c-1.8,6.2-6,5.9-7.9,5.6s-5-1.3-5-1.3s0.3,1,1.3,2.6s5.8,1.8,8,1c2.2-0.7,3.8-3.7,3.8-5.1    c0-1.5,2.2-7.4,2.7-8.2c0.4-0.9,2.2-0.9,2.2-0.9l-1.2,1.3c-1.2,1.3-2.2,6.2-2.7,8.8c-0.4,2.6,0.3,5.6,0.3,5.6s2.2-2.2,3.2-4.4    s0.8-6.5,1.4-7.6c0.6-1.2,2.4-1.5,2.4-1.5s-1.5,1.3-1.6,3.4c-0.1,2-0.3,4.5,0.2,5.7c0.4,1.2,0.8,6.8,0.8,6.8s2.6-3.1,4.4-4.9    s2.1-5,1.5-7.6s-1.8-6-1.8-6s2,3.4,3.2,6.3c0.1,0.2,0.2,0.4,0.2,0.7c0.4-0.8,0.7-1.8,0.6-2.7c0,0,0.5-4.3-1.2-7.4    c-1.6-3.1-4.9-4.8-4.9-4.8s3.3,0,5.2,2.6s7.9,8.4,7.9,8.4l-0.2,0.3c0.1,0.1,0.2,0.2,0.3,0.3c0.9,0.9,2.8-0.2,2.8-0.2    s-2.5-1.3-3.7-3.2s-2.5-6.3-2.5-6.3h3.6c1.6,0,5.4-1.6,5.4-1.6s-0.9,0.1-2.1,0.1s-2.5-0.9-3.6-2.2c-1-1.3-3.7-0.7-3.7-0.7    s-0.2-3.1-0.4-4.2c-0.3-1.2-2.2-2.4-2.2-2.4s0.9-0.2,3-0.6c2.1-0.4,4.4-3.4,4.4-3.4s-3.1,0.7-5.6,0.7s-6.4-0.9-6.4-0.9L124,40    c0.9-0.6,0.7-2.8,0.7-2.8s-0.3,0.9-1.2,1.3c-0.9,0.4-5.8,0.6-5.8,0.6l-0.5-0.7c-0.4-0.7-5.5-5.3-7.1-6.9    C108.5,29.9,108.8,26.6,108.8,26.6L108.8,26.6z M99.5,39.8c1.9-0.1,5,1.7,6.6,2c2.1,0.4,3,1.9,4.6,2.5s-1.2,2.4-2.2,1.6    c-1-0.7-2.6,1.5-4.6,1.3c-1.9-0.1-4.6-2.3-2.6-5.1c0,0-0.6-0.4-1.5,0.7c-0.9,1.2-2.4,0.1-1.5-2.2C98.4,40.1,98.9,39.8,99.5,39.8z     M128.2,61.2c0,0,0.3,4.4,0.2,5.6c-0.2,1.1-1.8,8.1-1.8,8.1v-0.2c-0.1,1.3-0.2,2.5-0.1,3.2c0.3,1.8,2.5,6.6,3.8,7.6    c1.4,1,2.1,1.3,2.1,1.3s-1-12.2-0.9-15.4c0.1-1.7,0.5-3.7,0.9-5.1c-0.5-0.9-1.5-2.6-2.4-3.3C128.8,61.9,128.2,61.2,128.2,61.2z"/>
		<path class="st3" d="M73.9,50.2c0,0-3.7,0.4-4.1,3.8c-0.4,3.4,0.5,6.2,3.5,7.1c2.9,0.9,8.5,0.6,12.3-0.7c3.8-1.2,10.6-4,11.8-4    c1.3,0,3.7-0.2,3.7-0.2s-0.2-0.6-1.8-1.7c-1.7-1.1-5.1-0.4-6.4,0.2c-1.4,0.6-10.2,4.3-14.4,3.4c-4.1-0.9-6.2-2.2-5.8-4.2    C73,51.9,74,50.3,73.9,50.2L73.9,50.2z"/>
		<path class="st3" d="M116.6,73.9l-0.6,1c-0.7,1-3.9,6-3.9,6l-0.5-1.3c-0.5-1.3-0.6-3.7-0.6-3.7s-2.5,1.4-3.4,1.8s-4.8,0.4-7-0.3    c-2.2-0.6-2.8-3.1-2.8-3.1l-1.2,0.8c-1.2,0.8-10.5,1.3-11.8,1c-1.3-0.2-3.4-0.1-3.4-0.1s2.1,1.7,3.2,2.2c1.2,0.5,2.2,0.6,2.2,0.6    s-1.3,0.3-2.4,0.3c-1.2,0-2.8-1.4-2.8-1.4s-1.3,0.2-2.3,0.8c-1,0.5-5.3-0.5-6.4-0.4c-1,0.1-3.2-0.6-3.2-0.6l0.8,0.8    c0.6,0.6,3.4,2.3,5,2.3s3.1,0.3,4-0.6s3.2-0.5,3.2-0.5s-0.8,1.3-3,2.2c-2.2,0.9-4,0.6-5.3,0.4s-2.2,0.4-3.6,0.2    c-1.4-0.3-5.5,0.5-7.8,1.1s-2.5,0.9-2.5,0.9s2.2-0.5,3.8-0.6s4.4,1.3,6.4,1.4s5-1.2,6.2-1.3c1.3-0.1,5.2,0.9,5.2,0.9    s-2.2,0.6-3.9,1c-1.7,0.4-6.5,3.2-8.2,4.2s-6.5,5.5-9,6.2c-2.4,0.6-4.2-1-4.2-1s0.2,0.9,0.9,1.6c0.8,0.6,3,0.5,5.4,0.5    c2.5,0,4-1.7,6-3.4c1.9-1.6,5.6-2.2,6.6-2c1,0.1,1,1,1,1l-2.2-0.2c-2.2-0.1-6,3.1-6.8,4.2c-0.8,1.2-5.7,2.8-10.2,4.1    c-4.6,1.3-9.2-1.6-11.3-2.4c-2.1-0.9-6.4-2-8.7-1.4s-5.1,3.4-5.5,8.1c-0.4,4.6,2.7,3.7,2.7,3.7c-2.3-0.2-1.9-3.4-1-5.4    s2.2-3.2,4.8-3.7s5.4,0.8,9.2,3s5.3,3.1,8.7,3.1s8.7-2.6,10.1-4.6s6-4.2,7.5-4.1c1.6,0.1,0.5,1-1.7,1.6s-6.4,5.6-7.9,6.9    c-1.6,1.3-4.9,1.3-4.9,1.3l-1.2,2c-1.2,2-4,4.1-7.6,5.9c-3.5,1.8-5.4,3.6-5.4,3.6s1.7-0.8,6.4-1.7c4.7-0.9,4-2,5.6-3.4    s2.4-1.3,4.1-2.2c1.7-0.9,8.4-6.9,10.7-8.4c2.2-1.6,5.8-2.8,7.6-2.3c1.8,0.5-0.2,1.3-0.2,1.3h-2.2c-2.2,0-10.3,7.2-12.9,9.6    s-4.2,8.4-6,11.6s-6.5,5.2-6.5,5.2s0.6,0,3-0.6s5.2-3.2,7.3-5.4c2.1-2.2,4.3-6.9,5.6-8.6s2.7-2.2,2.7-2.2l-0.7,1.5    c-0.6,1.5-3,3.6-3.6,5.4c-0.7,1.8,0.8,5.6,0.8,5.6s1.2-0.9,2.4-1.8c1.2-0.9,2.7-3.8,3.4-5.8c0.6-2,4.4-9.4,6.2-8.4    c1.8,1-3,4.5-4,8s-0.4,13.7-0.4,13.7s1.3-0.9,2.5-3.3c1.2-2.4,2.2-12.6,4.6-15c2.3-2.4,5-2.7,6.6-2.3c1.6,0.4-1.2,2.2-3.2,3.2    s-3,3.2-3.6,7.2s-1.7,14.1-2.3,18.8c-0.7,4.8-4.3,8.2-4.3,8.2s1.8,0.1,3.5-1.2s4.8-6.5,5.6-9.5c0.8-3,0.8-9.8,2.1-13.2    c1.3-3.5,6-5.8,7-4.4s-2.8,1.9-4.4,2.8s-1.6,12.4-1.6,15.5c0,2.9,3.5,7.4,4,8c-0.2-0.3-0.6-0.9-0.9-1.7c-0.4-1.1-0.2-5.4,0.2-8.2    c0.4-2.8,2.4-7,3.9-11.2c1.5-4.1,6-4.7,7.4-6.9c1.4-2.2,0.2-5.6,0.2-5.6l1.7,1.3c1.7,1.3,0.9,3.3,1.3,7.4s4.9,5.4,4.9,5.4    s-1.3-2.2-0.9-5.4c0.4-3.2,3.4-4.8,5.2-8.5c1.8-3.7,0.4-6.4,0.4-6.4s0.6,1.2,1.7,2.7c1,1.6,2.2,2.4,2.2,2.4s-0.1-3.2,0.8-5    s0.9-6,0.9-6v1.8c0,1.8,4.5,5.4,4.5,5.4l0.8-1.4c0.8-1.4,0.5-8.2,0.5-11.3c0-3.1,2.2-7,2.2-7s-2.2-4.7-2.4-6    c-0.1-1.3-0.8-4.9-0.8-4.9l-1,0.8c-1,0.8-3.4,3.5-3.4,3.5l-1.4,1.4c-1.4,1.4-2.6,1.4-2.6,1.4s0.4-1.5,0.5-2.6    S116.6,73.9,116.6,73.9z M98.3,79c0.1,0.9-8.4,3.3-10.1,4.8c-1.7,1.6-2.2,3.4-2.2,3.4s2.2,0.2,4.8-0.8c2.6-1,6-3.2,8.3-4.4    c2.3-1.2,5.4,0,5.4,0s-2.3,0.5-5.3,2s-3,4.4-4.6,6S91,95.4,91,95.4l0.5-0.8c0.5-0.8,3.3-1.2,5.8-2.2c2.6-1,2.2-1.6,3.8-3.6    c1.6-2.1,6.7-5.9,9.5-5.9c2.7,0,2.2,0.4,2.2,0.4l-2.7,0.6c-2.8,0.6-6.2,3.4-7.3,5.9s-1.7,8.7-1.7,8.7l0.2-0.6    c0.3-0.6,3.9-1.6,6.1-3.3c2.2-1.7,3.6-3.5,4.9-5.4s2.6-1.9,3.5-0.8c0.9,1.2-2,4.1-3.4,5.3c-1.4,1.1-7.5,3.6-9.5,5.1    c-1.9,1.5-3,5-3,5s-0.8-0.9-1.2-2.8c-0.4-1.9,1.2-3.2,1.3-5.1c0.1-1.9,0.4-3.6,0.4-3.6l-0.9,0.6c-0.9,0.6-4.9,2.2-7.4,4.9    c-2.5,2.7-2.7,6.4-2.7,6.4s-2.1-4.1-2.1-6.7s3.9-5.8,4.8-6.9c0.9-1.2,2.8-4.6,2.8-4.6s-1.4,0.9-2.7,2.2c-1.3,1.3-4.3,1.6-8.6,2.7    c-2.1,0.5-2.8,1.1-3,1.6l-0.4-1.4c-0.6-2.2,5-8.2,7.6-9.7C90.6,80,98.3,79,98.3,79z M80.9,92.7l0.3,0.8    C81.2,93.5,80.8,93.2,80.9,92.7z"/>
		<path class="st3" d="M101,32.6c0,0-2.1-5-1.5-7c0.6-2.1,1.5-2.2,1.5-2.2s-0.3,3.1,0.9,5.9s1.9,3.5,1.9,3.5L101,32.6z"/>
		<path class="st3" d="M136.9,81.2c0,0-0.8-4.8,0.4-7.6c1.2-2.8,11.9-13.4,13-15.5c1.2-2,2.6-5.4,2.7-9c0.2-3.6-0.9-5.4-0.9-5.4    s1.3,0,1.8,2.2s2.4,7.6,2.4,7.6s-0.4,1.3-1.8,3.9c-1.4,2.6-6.5,7.3-8.5,10C144.1,70.1,138.8,77.3,136.9,81.2L136.9,81.2z"/>
		<path class="st3" d="M204.1,18.3c0,0,0.8,1,0.9,4.6c0.1,3.6-5.2,11.7-8.5,16.4c-3.2,4.6-12.4,11.5-12.4,11.5l0,0    c-1,0.9-9.6,8.9-11.3,9.6c-1.8,0.8-4.1,1.9-4.1,1.9s-0.3-1.4,1-2.7c1.3-1.2,14.7-11.7,15.5-12.4c0.7-2.4,1.6-5.4,1.8-7.3    c0.4-3.3,1.4-13.3-0.6-17s-5.6-2.9-5.6-2.9l1,2.4c1,2.4,1.6,3.9-4.7,14.9c-6.2,11.1-27.3,31.8-27.3,31.8l0,0    c0.5-0.5,16.5-15.8,21.9-21.3c5.5-5.6,11-17.8,11.7-19.9s-0.3-6.4-0.3-6.4s1,1,2,2.7c1,1.8,0,7.1-5,17.2    c-4.9,9.9-27.1,27.8-28.1,28.5c1.7,0.5,4,1.2,5.3,1.9c1.7,0.9,6.6,1.2,10.2,0.9l3.9-3.2c3.7-3,26-27.9,30-33.8s3.6-12,3.6-12    c0,0.3,1.6,3.4-3.4,15.6c-4.9,11.9-26.1,32-27.2,32.9c0,0.3-0.1,0.6-0.1,0.9c-0.3,2.1-3.7,3.2-3.7,3.2s4-0.2,5.4-1.3    c1.3-1.1,1.9-3.4,1.9-3.4s0.2,0.3,0.3,0.9c0.8-0.2,10.4-3,24.2-11.3c14.4-8.7,16.2-13.3,17.7-15.1c1.5-1.8,3.6-6.4,3.6-6.4    s-1.8,8.6-4.1,11.7c-2.3,3.1-23.5,16.5-30,20.2c-6,3.4-10.7,5.6-11.5,6c-0.8,2.1-2.8,3-2.8,3s4.4,1.6,6.2,1.6s5.8-2.4,5.8-2.4    s-0.2,0.5-0.5,1.2c0.4,0,11.2,0.8,17.1-0.3c6-1.1,20.3-2.7,20.4-2.7c0,0-2.1,3-12.5,4.6c-10.3,1.6-26.7,1.9-26.8,1.9    c-1,1.8-2.1,3.5-3.1,3.8c-2.1,0.8-8.9-0.3-8.9-0.3s0.3,0.6,1.1,1.9s0.2,3.1,0.2,3.1s-2.1-0.2-3.6,0s-2.3,0.6-2.3,0.6    s1.8,1.1,2.6,2.2s0.8,3.2,0.8,3.2s-1.3,0.8-2.6,1.3s-2.1,0.8-2.1,0.8s0.6,1,1.3,2.1c0.6,1.1,0,2.4,0,2.4l-1.1,0.3    c-1.2,0.3-5.4-0.2-5.4-0.2s0.8,1,1.3,3.4s0,1.6,0,1.6s-0.8,0-2.1-0.2s-2.6-1-2.6-1l0.2,0.8c0.2,0.8,1.1,2.6,1.1,2.6h-1.3    c-1.3,0-6.3-2.4-6.3-2.4l0.5,1.9c0.5,1.9-1,4.6-1,4.6l-0.8-0.8c-0.8-0.8-3.1-1.4-3.1-1.4l0.2,1.4c0.2,1.4,0,1.6-1.2,3.8    c-1.1,2.2-4,2.7-4,2.7v-2.9c0-1.6-2.4-4.2-2.4-4.2s0,0.3,0.2,2.6c0.2,2.2,2.1,7,2.1,7s-3.1-0.3-4.6-1c-1.4-0.6-2.8-2.1-2.8-2.1    l-0.8,0.8c-0.8,0.8-2.8,1.1-2.8,1.1s-0.2-0.6-1.5-3.7c-1.3-3-5.2-6.4-5.2-6.4l-0.8,2.4c-0.8,2.4,0,7.7,0,7.7s-3.2-1.3-5.4-3.5    c-2.1-2.2-4.7-6.7-4.7-6.7s-4.1,5-3.6,7.8c0.5,2.9,2.8,3.5,3.8,5.9s1.1,6.8,1.1,6.8s0.5-1.9,2.6-4.3c1.1-1.3,1.5-2.7,1.6-3.7    c-0.2-0.4-0.3-0.8-0.3-1c0.2-0.8,0.1-0.8,0.1-0.8s0.1,0.2,0.2,0.5c0-0.2,0-0.3,0-0.3s0,0.2,0.1,0.5c0.5,0.9,1.6,2.7,3.5,4    c2.6,1.9,6.6,2.4,6.6,2.4s1.6-0.8,1.2-3.5c-0.5-2.7-0.5-2.8-0.5-2.8s4.7,2.2,6.5,3s4.6,3.4,4.6,3.4s0.4,0.1,0.9-0.1    c0.6-0.2,0.6-0.9,0.6-1.3c-0.2-1.8-0.5-3.5-0.5-3.5v-0.1l0,0l0.1-0.1c0.1,0,0.2-0.1,0.3-0.1c0.4,0,1,0.2,1.9,1c2,1.8,3.6,5,6,5.8    l2.4,0.8c0,0,1.6-4.4,1-7.1c-0.6-2.7-0.8-4-0.8-4s5.4,1.3,8.4,1.3h3.2c0,0,1.6-1.3,1.1-4s-1.9-6.6-1.9-6.6s3.2-2.8,5.5-2.6    c2.2,0.2,5.2,2.3,6.3,2.3h1.1l0,0l0,0c0.1-0.4,0.3-1.9-1.5-5.1c-2.1-3.7-3.3-5.4-3.3-5.4l0,0c0.2,0,1.1-0.3,3.7-0.2    c2.6,0.2,6.9-1.2,7.7-1.4c-0.1-0.2-0.1-0.5-0.2-0.8c-0.7-2.7-6.8-8.2-6.8-8.2c2.6-1,4.7-1.8,4.7-1.8l1.3,1.4l0,0    c0.4,0.8,3,4.1,12.4,5.9c9.8,1.9,22,2.8,25.4,2.1c-1.9,0.6-7.2,1.9-13.2,1.2c-6.6-0.7-18.1-2.3-22.4-3.8c0.6,0.6,1,1.2,1.1,1.7    l0,0c0.2,1.8,0.1,4.5,0.1,4.5s-3.7-0.6-6.2,0c-2.3,0.6-4,0.6-4.2,0.6c0.1,0.2,2.4,4.5,2.6,6.8c0.2,2.2,0,4.5,0,4.5s-1.5-0.3-4.9-1    c-0.4-0.1-0.7-0.2-1-0.2c1.7,2.7,8.6,13.3,11.2,15.2c3.1,2.2,11.6,8.8,11.6,8.8s-9.6-4.6-16.2-10.9c-6-5.6-9.7-12-10.4-13.4    c-1.5,0-2.6,0.1-2.6,0.1s0.7,1.9,1,3.5s3,8.7,3,9c-0.1-0.2-0.9-0.8-3.7-0.6c-0.7,0-1.5,0.1-2.3,0.1c0.7,1.7,4.6,10.6,7.5,13.8    c3.2,3.5,7.8,7.4,7.8,7.4s-3.2-1-6.5-4c-3.2-3-7.4-8.2-8.9-11.2c-1-2.1-2.6-4.6-3.4-5.9c-1.8,0-3.4,0-3.8-0.2l-1-0.5    c0,0,1.1,2.6,1,4.8c0,0.6-0.2,1.4-0.5,2.2c0.6,2.2,1.8,6,2.8,8.4c1.2,3.1,6.8,5.6,7.7,5.9c2,0.7,10.4,4.3,13,4.4    c3.4,0,4.6,0.3,4.6,0.3s0-0.8-1.2-2.2c-1.1-1.4-10.2-8.8-11.8-11.6c-1.6-2.7-2.6-10-2.6-10s12,10.9,16.1,12.8    c3.7,1.8,9.4,3.2,10,3.1v-0.1v0.1c-0.1,0.2-2.2,4-1.1,6c1.2,2.1,3.2,3.7,7,4c3.7,0.3,9.9-1.6,12.2,1.9s2.8,7.7-1.6,10.2    c-4.4,2.6-10.9,3.4-13,3.1l-2.1-0.3c0,0,2.4-2.2,2-4.8c-0.5-2.6-1-2.7-1-2.7s-1.8,5.3-2.9,5.6c-1.1,0.3-8.4,0.6-12-0.8    c-3.6-1.4-11.5-6.4-13.3-8.6c-1.8-2.2-4-4.8-4-4.8l3.6,0.2c0,0,1.3,0.2,0.2-1.4c-0.3-0.4-0.6-1-0.8-1.5l-0.8-0.6    c-1.8-1.3-10.8-5.8-12.9-8.5c-1.5-2-2.1-4-2.3-5c-1.2-0.9-6.9-4.6-6.9-4.6c-0.3-0.2-0.4-0.2-0.5,0c-0.1,0.1-0.2,0.4-0.2,1v2.2    c0,0-2.2,0.3-4.7-1.4c-0.6-0.4-0.8-0.5-1.4-1c2.4,2.1,5.8,5.7,7.8,8.2c2.6,3.2,8.4,8.5,12.3,10.8c3.9,2.2,10.9,13.1,15.3,17.5    c4.4,4.3,16.7,5.9,16.7,5.9c4.8,0.6,15.6-0.6,16.5-1.2c0.9-0.5,2.5-0.9,3.8-0.5s1.7,0.2,3.5,0.4c1.8,0.1,2.3,2,2.3,2    s0.5-2.6,0-3.5s-4.2-1.3-4.2-1.3s6.3-3.1,6.8-8.5s-2.6-10.4-5.4-12.2c-2.8-1.8-12.6,0.2-14.9,0.1c-2.2-0.1,0-3.8,2.1-7    s4.3-1.6,6.3-0.5c2,1,1.4-3.9,2.1-4.9c0.6-1,5.6,0,9.4,0.6c3.8,0.6,4.3,4.1,4.3,4.1v-1.3c0-1.2-0.6-2.1-2.2-2.3    c-1.6-0.3-1.6-1.2-1.6-1.2s5.6-4.6,6.8-5.3s2.9,1.3,2.9,1.3s0-1.6-0.1-2.8c-0.1-1.3-1.4-1-2.1-0.5c-0.7,0.5-3.9-0.6-3.9-0.6    s3.8-2.4,4.4-4.4c0.6-1.9-0.8-5.3-0.3-5.9s2.6,0.4,2.6,0.4l-0.6-0.8c-0.6-0.8-1.6-0.2-2.4-0.9c-0.8-0.8-0.1-6,0-7.8    c0.2-1.8,1.8-1.3,2.2-1.8s-1.2-0.4-2.5,0.6s-3,5.5-5.8,8c-2.7,2.5-4.9,2.7-5.1,1.7c-0.1-1-1.2-4.1-1.2-4.1l-0.3,1.7    c-0.2,1.7-4.4,6-4.4,6s0.6,0.2-1.2-0.1c-1.8-0.2-14.5-7.7-14.5-7.7c-2.3-1.7-6.6-8.5-6.6-8.5s8.9,2.5,12.9,2.5s12.4,1.2,19.6-1.2    s8.5-7.6,7.4-9.7c-1-2-1.4-2.7-2.5-1c-1,1.7-7,3.1-16.3,1.8c-9.2-1.3-17.2-6-17.2-6s13.3-0.8,17.6-1.9c4.3-1.2,17.7-8.6,20-12.4    c2.2-3.8-1-10.4-1-10.4s0.1,0.2,0.1,1.5s-2.7,4.4-5.1,6.1c-2.4,1.7-12.4,3.2-16.7,3.2s-10.3,0.6-10.3,0.6s8.5-5.8,15.5-11.3    c7-5.6,14.4-11.7,14.9-18.6c0.5-6.8-2.4-10.7-2.4-10.7s-0.5,1.7-2.9,5.8c-2.3,4.1-11.1,11.1-14.8,12.8c-3.8,1.7-12.4,6.8-12.4,6.8    s-0.5,0.8,0.6-1.5c1.2-2.3,7.4-12.1,10.6-16.8c3.1-4.6,9.6-16.5,6.4-21.6C208.2,19,204.1,18.3,204.1,18.3L204.1,18.3z     M184.2,101.9c0.1,0.3,0.1,0.5,0.2,0.6l0,0l0,0C184.4,102.3,184.3,101.9,184.2,101.9C184.3,101.9,184.3,101.9,184.2,101.9z     M221.5,100.5L221.5,100.5c0,0-0.1,0-0.1,0.1C221.4,100.5,221.5,100.5,221.5,100.5z M181.4,105.3c0,0,5,4.6,7.4,7.1    c2.4,2.4,15.8,10.4,19.2,11s15.4-0.8,15.4-0.8s-0.7,6.4-4.6,8.4c-3.8,1.9-14.7,1.2-15.3,1.1c0.1,0.2,0.2,0.9,0,3    c-0.4,3.8-3.4,4.2-3.4,4.2s-6.8-4.2-10.9-7.2c-3.9-3-14-15-14.6-15.6c-0.2-0.1-0.2-0.2-0.2-0.2l0.2,0.2c1.3,1,9,5.2,16,8.7    c8,4,13.6,6,19.8,5.5s10.4-6,10.4-6s-10.1,1.8-14.6,0.8c-4.6-1-25-13.8-25-13.8l-0.6-1.8C179.8,108.1,181.4,105.3,181.4,105.3    L181.4,105.3z M133.7,129.2v2.1c0,1.6-1,3.9-1.3,4.1l0,0l0,0c0,0-1.9-0.5-3.9-1.2c1,0.5,1.3,0.7,1.3,0.7s6,8.8,10.4,10.9    c4.4,2.1,5.5,1.1,5.5,1.1s-7.8-6.9-9.1-9.3c-1.3-2.3-2.1-7.6-2.1-7.9L133.7,129.2z"/>
		<path class="st3" d="M146.7,69.8c0,0,18-17.5,22.2-24.3s4.6-10.8,4.3-13.8s-3.5-7.3-5-8.1c-1.4-0.8-3.4-1.4-3.4-1.4    s2.1,4.1,1.7,8.9c-0.4,4.8-7.7,21.4-8.5,23.3C157.3,56.3,147.6,68.1,146.7,69.8z"/>
		<path class="st3" d="M138.5,90.1c-1.3-3.1,0.7-9.2,3.3-12.8c2.6-3.6,6-6,7.7-6s11.5,3.3,17,2.8s6.5-1.2,6.5-1.2s-1.4,2.4-3.5,3.2    l-2.1,0.8c0,0,5.5,1,7.4,0.2c2-0.9,2.3-2.3,2.3-2.3s0.3,2.4-0.8,3.7c-1,1.3-3,2.8-3,2.8s5.6,2.4,7.7,2c2.1-0.4,3.5-0.6,3.5-0.6    s-1.4,3.9-3.1,4.8c-1.7,0.9-8.1-0.2-8.1-0.2s-8.6-6.8-10.7-7.2c-2.1-0.4-7.9,0.8-9,1.8s-1.4,3-3.9,6.3s-4.7,3.6-4.7,3.6    S139.8,93.1,138.5,90.1L138.5,90.1z"/>
		<path class="st3" d="M116.3,109.3c0,0-1.4,2.7-0.9,4.4s4.2,6.4,5.6,7.5l1.4,1c0,0-0.2-5.2,0.7-6.8c0.9-1.7,1.8-2.4,1.8-2.4    s3.9,2.6,5,4.8c1,2.2,2.6,5,2.6,5s1.8-0.9,1.6-3.4c-0.3-2.4-1.3-6.3-1.3-6.3s2.5,2.3,2.9,4.6c0.4,2.3,0.2,4.5,1.3,5    c1,0.5,3.7,1.4,3.7,1.4s-1.6-5.5-1.7-7.6s1.2-2.8,1.2-2.8s2.6,3,3.2,4.4c0.5,1.4,0.8,3.6,0.8,3.6s2.9-2.3,2.8-4.2    c-0.2-2-1.4-6.7-1.4-6.7s0.8,1.8,1.8,2.6c1,0.8,4,2.2,4,2.2s0.1,0.1,0.2-2c0.1-2.2-1-4.8-1-4.8s0.3,0,2.1,1.2s5,1.6,5,1.6    s-0.1,0-0.4-1.5c-0.2-1.6-0.8-2.8-0.8-2.8s2.2,2.4,3.6,2.6c1.4,0.2,1.7,0,1.7,0s0.2,0.3-0.1-2.2c-0.2-2.5-1.2-3.9-1.2-3.9    s2.1,1.8,3.4,1.8h2.8c0,0,0.5-0.1,0.2-1.9c-0.4-1.8-1.6-3.1-1.6-3.1s0.9-0.2,2.4-0.2c1.4,0,2.9-1.2,2.9-1.2s0-0.6-0.5-2    s-2.8-3-2.8-3s0.9-1,2.4-1.5c1.4-0.5,3.4-0.4,3.4-0.4s0.6-0.8-0.4-2.3s-7.2-7.7-9.9-8.2s-6.2,0.5-6.8,1.2s-0.8,1.7-0.8,1.7    s2.4-1.3,4.3,2.2c2,3.5,2.5,8.6-0.8,11.4c-3.2,2.8-11.7,6.7-12.5,7.8c-0.8,1-11.5,1-14.3,0.5c-2.9-0.5-4.4-2.2-4.4-2.2s-1.2,3-2,4    l-0.8,1c0,0-1.7-1.9-2.7-3.1s-1.3-2.2-1.3-2.2s-0.5,2.6-0.2,4c0.2,1.4,1.7,3.7,1.7,3.7s-0.8,0.8-2.4,0.4    C117.9,111.4,116.3,109.4,116.3,109.3L116.3,109.3z"/>
		<path class="st3" d="M92.6,132.5c0,0,1.4-7.7,3.6-9.8c2.1-2.1,6.7-4.2,6.7-5.6v-4.3c0,0,1.6,3.5,1,6.2s1.6,5.1,3.2,6.1    s4.9,0.6,5.7,3.5c0.8,2.9,2,8.4,2,8.4s2.4-3.4,3.4-4.3c1-1,2.4-2.1,2.1-2.7l-0.3-0.6c0,0,3.2,4.8,4,5.3s4.2,1,5.5,2.7    c1.3,1.8,6.3,8.5,8.9,9.6s6.5,2.1,8.3,1.6s2.3-1,2.3-1s-9.4-7.7-10.1-8.6c-0.6-1-1.8-5.3-1.8-5.3s5.8,5.8,7.8,8    c1.9,2.2,5.4,5.9,7.6,8.2c2.3,2.2,8.1,4.3,9.9,7.8c1.8,3.5,0.8,6.2,1.6,8.6c0.8,2.4,1,2.4,1,2.4s-1.2-1.6-2.3-2.6s-5.4-1-6.3,0.8    c-1,1.8,0.2,5.6,0.2,5.6s0-1.3-2.4-1.4s-2.8,0.3-2.8,0.3s1,2.4-0.2,3.7s-7.2-0.3-8.8-4.5s-0.8-11.7-4.6-18.1    c-3.7-6.4-14-10.4-19.2-11.9c-5.2-1.4-13.5-5-16.2-5C99.8,135.7,95.4,138.1,92.6,132.5L92.6,132.5z"/>
		<path class="st3" d="M145.9,175.9c0,0,0.4,1.5-0.1,3.1c-0.4,1.6-0.4,5.1-0.2,6.1l0.2,1c0,0,0.5-0.7,1.5-0.9l1-0.2c0,0,1,4.4,1.3,6    c0.4,1.6-0.6,4.7-1,5l-0.4,0.4c0,0,1.8-0.7,2.3-2.2s1.4-6.6,1.4-6.6s2.7,4.4,4,5.6c1.3,1.3,2,2.3,2,2.3s1.6-4.4,1.8-6.8    c0.2-2.4-0.2-4.4-0.2-4.4s2,2.1,2.5,3.5c0.4,1.4,1.3,3.8,1.3,3.8s2.1-6,1.4-9.4c-0.7-3.3-0.4-2.5-0.4-2.5s3.5,0.9,4.7,1.8    c1.2,0.9,1.5,2.1,4,2.8c2.4,0.7,3.4-0.3,3.4-0.3s-3-2.8-4.2-4.3s-1.6-4.4-1.6-4.4s4.1-0.4,5.5,0.2c1.4,0.6,6.6,2.1,6.6,2.1    s-2.4-3.4-4.1-4.5c-1.6-1-6.2-3.4-7.5-4.7c-1.3-1.4-6.6-9.1-6.6-9.1s0.4,4.3,1,6.2c0.7,2,2,5,2,5s-2.3-0.1-3.3-1.2    c-0.9-1.2-2.8-3-3.7-2.9c-1,0.1-3.6,0.4-3.3,2.9c0.4,2.4,0.6,5.8,0.6,5.8s-0.8-2.6-3-2.9c-2.2-0.4-2.3-0.2-2.3-0.2    s1.3,2.1,0.2,3.4C151.5,176.7,148.2,177.3,145.9,175.9L145.9,175.9z"/>
		<path class="st3" d="M114,140.7c0,0-1.5,1.4-2.2,2.6c-0.7,1.3-1.7,3.5-1.6,4.5s1.3,1.7,1.3,1.7s-1.4-2.2-0.6-3s3.5-1.5,6.8-1    s4.4,1.2,4.2,1.8c-0.2,0.7-4,3.8-6,5.2s-5.9,4.2-6.9,6.2c-0.9,2-1.5,4.7-1.5,4.7s2,0.3,5.4-0.7s3.5-1.1,3.5-1.1s-0.5,0.4-0.4,2.5    s2.5,3.7,2.7,5.2l0.2,1.5c0,0,3.4-4.2,4.4-5.1c1-0.8,3.7-1.2,3.7-1.2s0.4,1.7,0.1,3.8c-0.2,2.1-0.6,5-0.6,5s3.3-3.5,4-5.7    s2.7-9.2,3.6-11.6c1-2.4,1.5-3.4,1.5-3.4s-1.5-2-5.4-4.6C126.4,145.3,114.3,141.1,114,140.7L114,140.7z"/>
		<path class="st3" d="M114.3,163.9c0,0-4.3,1.4-6.2,1.6c-1.9,0.2-7.7,1.7-9.3,2.8c-1.6,1-7.5,5.8-8,6.6l-0.5,0.8    c0,0,3.2,0.5,7.5-0.8l4.3-1.3c0,0-0.6,2.2-0.4,4.6c0.2,2.4,2.5,6.1,2.5,6.1s0.3-1.1,2.7-2.5l2.3-1.4c0,0-1.5,0.6-2,2.4    c-0.4,1.8,0.1,5.5,0.1,5.5s2.4,0.2,3.8-2s6-7.4,6-7.4s0.6,3.8-0.8,5.6s-4,3-4.1,5.4s5.8,5.8,5.8,5.8s0.2-6.6,2.6-10.4    c2.3-3.8,4.7-6.7,4.9-9.6c0.2-2.9,0.4-9.4,0.4-9.4s-1.6,0.3-4.1,3.1c-2.4,2.8-3.7,5-3.7,5s0-2.9-1-5    C116.3,167.4,114.4,166.7,114.3,163.9L114.3,163.9z"/>
		<path class="st3" d="M99.8,175.6c0,0-7,1.8-8.4,1.8h-8.2c0,0-5.2-4.1-3.5-5.8c1.6-1.6,3.5-2.5,4.2-1.4c0.7,1.2,0.7,1.8,0.7,1.8    s1.2-2.3,0-3.2s-3.8-2.1-5.6-1.2c-1.9,0.9-2.4,3.2-2.1,5.6c0.2,2.3,1.9,6,1.9,6s-2.1-1-4-1.9c-1.8-0.9-2.3-2-1.8-3.2    c0.4-1.2,0.4-1.4,0.4-1.4s-1.4,0.7-1.4,2.1c0,1.4-0.2,5.3-0.2,5.3s-4.4,1.1-6.8,4.1c-2.3,3-3,8.6-3,8.6s-1.9,1.6-5.4,1.4    c-3.5-0.2-4.6-2.3-4.6-2.3s-0.2,2.5,0.7,3.2c1,0.7,4.9,2.6,7,0.9c2.1-1.6,2.4-2.1,2.4-2.1s1.8,4.4,2.8,4.8    c0.9,0.5,5.4,0.7,6.3-0.4l0.9-1.2c0,0-1.6,1.6-3.5-0.4c-1.9-2.1-1.4-3-1.4-3s1.4,0.2,2.3-0.2c1-0.5,2.4-1.2,2.4-1.2    s-2.1,0.7-2.6-0.2c-0.4-0.9-1.4-5.3,0.5-6.2s7.5,0,7.5,0l-0.2,2.3l0.2,0.5c0,0,1.6-1.6,2.8-1.4c1.2,0.2,2.8,3.2,2.6,5.1    c-0.2,1.8-2.1,6.7-3.3,6.7c-1.2,0-3.2-0.9-3.2-0.9s-0.5,2.1,2.6,1.8c3-0.2,8.9-7.1,9.1-9.9l0.2-2.8c0,0,0.5,6.7,1.4,9    c1,2.3,1.2,6.4,1.2,6.4s2.6-3.9,2.6-7.8c0-3.9,3-6,3-6s2.8,3.2,2.8,5.3s-0.9,3.7-0.2,6c0.7,2.3,3.2,4.4,3.2,4.4s1,1.6,0.2-3.5    c-0.7-5.1,1.2-8.1,1.2-8.1s1.2,8.1,1.9,10.4c0.7,2.3,3.7,5.3,4,8c0.2,2.8,0.2,3.7,0.2,3.7s2.3-1.8,1.9-6.2    c-0.5-4.4-1.4-6.9-1.4-9.2s0.9-4.2,0.9-4.2s1.2,2.3,2.1,6.2s1.2,3.5,4.6,3.9c3.5,0.5,8.4,5.3,8.9,6.7s1.9,5.1,0.5,6.2    c-1.4,1.2-2.4,1.6-2.4,1.6s3.8,1,4.2-4.1c0.5-5.1,0.5-6-1.8-9.2c-2.4-3.2-3.3-4.2-3.3-4.2s4.4-0.2,4.9-1.8s1.4-4.8-0.4-7.4    c-1.9-2.6-3.8-1.8-3.8-1.8s3.3,1.2,3.3,2.8s0.9,5.1-2.8,4.8s-7.9-2.5-11.4-5.5s-3.5-5.1-3.5-5.1s-0.5,3.2-2.4,3.2h-1.8    c0,0,0.9-3.2,0.2-5.3l-0.7-2.1c0,0-1.4,0-2.3,2.3l-1,2.3c0,0,1.6-3.4,0.5-6C101.2,180.7,99.4,180,99.8,175.6z"/>
		<path class="st3" d="M96,190.3c0,0-1.8,2.3-1.9,4.4s-0.6,6-2.2,8.3s-2.8,3.2-2.8,3.2s0.2-3.2,0-5.6c-0.2-2.4-1.2-5.9-1.3-6.7    l-0.1-0.8c0,0-0.8,2-1.8,3.5c-1.1,1.5-3,2.6-3,2.6s-0.7,2.6-0.1,3.8c0.6,1.3,2.7,4.4,2.7,4.4s4.8,4.2,3,5.5    c-1.9,1.3-4.8,3.5-6.2,5.7c-1.4,2.2-8.6,0.2-9.1,1c-0.6,0.8-2.2,1.8-2.9,2.4c-0.7,0.7-0.9,3.2-1.5,3.7s-5.8,0.6-6.5,0    s-1.3-2.9-2.2-3.4c-0.9-0.6-2.6,0.1-2.4,0.1c0,0-0.4,2.3-0.6,2.8l-0.2,0.4c0,0,0.7,1.3,0.8,2.1c0.1,0.4,0,0.9-0.1,1.4    c0.2,0,2.5,0.4,3.4,0.3c1-0.1,2.1-1.5,3.3-1.8c1.2-0.4,2.8-0.4,2,0.4c-0.8,0.7-3.8,2.2-5.5,2.6c-0.9,0.1-2.1,0.8-2.9,0.3    c0.1,0.3,0.3,0.6,0.5,1.1c0.5,1.2,0.4,2.9,0.4,2.9s0.6,1.5,1.9,0.2c1.3-1.2,4.4-3.1,3.6-2.3s-2.8,4-2.9,5.3c-0.1,1.3-0.1,2-0.1,2    s4.2-1.8,5,0.2l0.8,2.1c0,0,1.4,0.9,1.6-0.7l0.2-1.6c0,0,1-0.9,2-2.2c0.9-1.3,1.2-5.7,2.6-5.8s4.9,2.9,6,2.9    c1.2,0,2.1-1.6,3.4-4.6s1.3-4.7,3-4.2c1.8,0.4,4,1.6,4.7,1.8l0.7,0.2c0,0,0.8-1.3-0.1-2.4l-0.9-1.2c0,0,1,0.7,3.5,0.6    c2.5-0.1,5,0.3,5,0.3s-0.2-3.1,0.2-4.1c0.4-1,5.7-2,5.7-2s-0.5,0.8-1,2.3c-0.4,1.5-0.4,2.3-0.4,2.3s0.9-0.1,1.3-0.9l0.3-0.8    c0,0-0.1,2,1.6,2.3c1.8,0.4,4.6,1.4,4.7-1.2c0.1-2.5-0.2-5.9-0.2-5.9s2.4,1,2.6,2l0.1,0.9c0,0,1.2-0.8,1-2.9    c-0.1-2-1.5-6.9-1.5-6.9s-1.4,4.2-2.5,5.3c-1,1-3.2,2.1-3.2,2.1s1-6.1-0.1-8.1s-2.8-5.1-3.3-7.4l-0.5-2.3c0,0,0.6,4.4,0.4,5.9    l-0.2,1.5c0,0-1.6-0.2-2.8-1.8c-1.2-1.5-4.4-4.7-3.7-7.5c0.7-2.8,1.2-5.8,0.4-6.6C96.6,191,96,190.3,96,190.3L96,190.3z"/>
		<path class="st3" d="M152.4,191.1c0,0-0.6,3.1-1,4L151,196c0,0,1.4,7.2,1,7.8l-0.4,0.7c0,0-5.8,0.3-7.4-1.2c-1.5-1.5-2-3.4-2-3.4    s-1.8,2.6-1,3.9c0.8,1.4,4.1,3,4.1,3s-6.4,3.4-8.5,7.5c-2.1,4.2-3.1,11.7-1.2,14.4c2,2.8,6.6,6.7,9,5.5s3.7-2.2,4.8-3.7    c1-1.5,1-1.5,1-1.5s-3.5,3.2-6,3.2c-2.4,0-5-2.6-6-4.3c-0.9-1.6-0.9-3.1-0.9-3.1s2.7,1.5,3.8,1.5s2.9-0.8,2.9-0.8    s-3.4,0.8-4.2-1.3s-0.2-6.9,1.5-8.4c1.8-1.5,7-2.1,9.7-2.1s6-0.7,6.8-2.5c0.8-1.9,1.1-3.1,1.1-3.1s-1.5-2.2-2.1-4l-0.6-1.8    c0,0,1.2,0.2,1.5,1.2c0.4,0.9,1,3.4,2.4,4.5c1.4,1,2.9,3.8,2.7,6.3c-0.2,2.6-1.5,3.7-3,4.6l-1.5,0.9c0,0,4.7,1,6.6-1.8    c2-2.9,3-9.1,2.7-11.3s-4.4-8.6-4.4-8.6s3.2,2.4,4.2,3.5c0.9,1,2.2,2.3,3.5,2.8c0,0,3.3,2.4,3.6,3.4l0.3,1c0,0,0-6.2-0.3-9.4    c-0.4-3.2-1.8-7.5-1.8-9.2v-1.7c0,0,9.9-2.3,13.3-1.6c3.4,0.7,9.1-1.2,9.1-1.2s0.1-2.8-0.6-3.2c-0.7-0.4-2.7,0.5-5.2,0.2    c-2.6-0.2-5.4,0.8-6.3-1.5c-1-2.3-1-2.6-1-2.6s-5-1.6-7.8-2c-2.8-0.3-2.8-0.3-2.8-0.3s1.2,3.1,3,4.7c1.8,1.6,4.6,3.4,4.6,3.4    s-3.7,1.3-5.5,1.2s-4.1-1.6-5.5-2.8s-3-1.6-3-1.6s0.6,4.8-0.4,8.1c-1.1,3.4-1.9,5.5-1.9,5.5s-1-3.6-1.9-5.5l-0.8-2    c0,0,0,3.1-1.3,6.7l-1.3,3.6c0,0-1.3-2.1-2.4-3.2C154.6,193.4,152.4,190.9,152.4,191.1L152.4,191.1z"/>
		<path class="st3" d="M177.2,204.8c0,0-1.6-1.9-0.8-3.9c0.8-1.9,4.8-1.8,5.9-0.4c1.1,1.4,0.6,1.9-0.8,3.2    C180.1,205,178.2,206.2,177.2,204.8L177.2,204.8z"/>
		<path class="st3" d="M180.3,197.6c0,0-4.6-1.6-5.3-4.8s3.2-4.4,6.3-4.7c3.1-0.2,8.2,1.4,8,3.6C189.1,194,183.6,198.6,180.3,197.6    L180.3,197.6z"/>
		<path class="st3" d="M182.1,210.6c0,0-1.8-2-0.5-4.2s6.9-4.3,9.4-2c2.4,2.4,2.3,5.6-1.5,7C185.6,212.8,184.6,213.4,182.1,210.6z"/>
		<path class="st3" d="M172.7,237.7c0,0,0.7-1.6,1.6-1.2c1,0.5,4.3,6.5,4.4,7.8c0.1,1.2,0.1,2.7-1.2,2.6c-1.2-0.1-3.2-0.4-3.2-0.4    s0.8-1.9,0.4-4C174.2,240.4,172.8,237.8,172.7,237.7z"/>
		<path class="st3" d="M177.3,227.9c0,0,1,0.9,1.6,0.7s1.7-0.5,2.2,0.3c0.4,0.8,3.7,2.1,3.7,2.1s-2.3-7.9-2.3-9.8    c0-1.9,3.8-6.9,6.1-8c2.3-1,6.8-3.6,6.5-5.5c-0.4-1.8-3.6-5.2-5.1-5.5c-1.5-0.2-4,0.7-4.8-0.6c-0.8-1.2-0.4-2.7,1.1-4.2    s5.8-4.8,4.8-6.3s-2.2-3.2-2.2-3.2l6.7-0.8c0,0,4.2,2.3,5.7,1.6s2.5-2.3,2.6-3.5s0.1-1.6,0.1-1.6s0.7,0.4,0.7,1.6v4.4    c0,0,5.3-3.9,7.3-2.4s5.2,7.2,6.2,7.9s2,0,2,0s-0.4,1.1-3,0.2c-2.7-0.9-5.1,1.6-5.4,3.5c-0.4,1.9,0,4.3,1.3,5s2.5,0,2.5,1.2    c0,1.1-0.7,2.3-0.4,3.1l0.2,0.8c0,0-1.1-0.6-1.1-2s-2.2-2-3-1.8s-2,0.9-2.1,2.5s-0.1,2.3-0.1,2.3s3.6-0.7,3.7,0.5    c0.1,1.1-0.2,2.7-0.2,2.7s-1.8-0.9-3.9,0.1c-2.1,1-2.9,2.4-2.9,2.4s2.7,1.6,2.9,4s-0.8,4.2-0.8,4.2s0.6-4.1-1.6-4.6    c-2.2-0.4-4.3,1.1-5.4,3.9c-1.2,2.7-0.7,8.4-0.3,9c0.3,0.6,1.1,2.2-0.6,1.9c-1.7-0.2-5.6-1.4-6.8-0.2c-1.2,1.1-0.4-3.8,0-5.6    s1.5-5.6,1.5-5.6s-1.8,2-2.3,3.1c-0.5,1.2-0.7,6.6-1,8.2c-0.4,1.6-1.6,5.5-1,6.6s0.8,1.6-0.1,2.4l-0.9,0.8c0,0-0.2-1.3-2.9-1.8    c-2.7-0.6-5.9,1.1-5.9,1.1s-0.5-1.1,1.4-2.8c1.8-1.7,3.7-7,3.7-7s-2.9,4.9-4,5.9c-1.2,1-3,0.9-3,0.9s-2.2-2.5-2.2-4s0-1.4,3-2.5    s3.7-1.9,3.7-1.9s-6.6,1.7-7.3,1.5l-0.7-0.2C174.8,232.9,178.2,231.4,177.3,227.9L177.3,227.9z"/>
		<path class="st3" d="M75.3,218.8c0,0-2.8,0.1-1.8-2.3c0.9-2.4,1.8-4,3.1-4.2c1.3-0.2,6,1.4,5.8,3.4c-0.2,2.1-2.2,2.9-3.3,3    C77.8,218.9,75.3,218.8,75.3,218.8L75.3,218.8z"/>
		<path class="st3" d="M82.2,214c0,0,2.1,0.6,3.4-0.2s2.8-1.6,1.9-3c-1-1.4-1.7-3.4-3.4-3.5c-1.7-0.1-4,1.3-4.7,1.9    c-0.7,0.7-2.4,1.2-1.9,2C78.1,212,82.3,214.1,82.2,214z"/>
	</g>
	<g class="st2">
		<path class="st4" d="M32.5,26.4c0,0-1.3-1,0.1-2.5c1.4-1.5,5-1.9,6.7-1.2c1.7,0.7,2.8,2.5,2.8,2.5l-2.7,0.9c0,0-0.9-1.8-3.1-1.7    C34.2,24.5,32.6,25.5,32.5,26.4z"/>
		<path class="st4" d="M49.7,24.6c0,0,0.4-2.1-0.7-2.8c-1.1-0.6-2.4-1.5-3.2-1l-0.9,0.6c0,0,0.3-2.2,1.4-2.4c1.1-0.2,5,0.1,6.1,1.4    c1.1,1.2,0.6,4.1,0.6,4.1S50.3,23.8,49.7,24.6z"/>
		<path class="st4" d="M32.1,35.3c0,0-0.2,1.2-0.2,2.5v1.4c0,0-1.8-0.3-2.2,0.1c-0.3,0.5-0.8,1.2-0.6,2.2c0.2,1,0.3,1.4,0.3,1.4    s-1.6-0.8-1.3-3.8c0.3-3,0.8-3.3,1.6-3.6C30.6,35.3,32,35.3,32.1,35.3z"/>
		<path class="st4" d="M47.2,57c0,0,1.7,0.4,2.5,0.4l0.9-0.1c0,0-0.2,1.8-0.7,2.5s-3.6,1.5-4.4,1.4c-0.8-0.1-2.2-0.4-2.2-0.4    s2.2,0,2.8-1.2C46.7,58.4,47.2,57,47.2,57z"/>
		<path class="st4" d="M37.6,31.2c0,0-1.6-0.8-0.6-2.1c1-1.3,3.3-2.6,4.5-2.8c1.2-0.2,3.2-0.3,3.5,0.9c0.2,1.2,0,2-0.3,2.4    c-0.4,0.4-4.4,2.5-5,2.4C39.2,31.9,37.7,31.3,37.6,31.2z"/>
		<path class="st4" d="M48.2,29.5c0,0-1.5-2.6-0.5-3.2s3-1.4,4.6-1c1.6,0.3,3.1,1.2,2.8,2.8c-0.3,1.6-1,2.3-2.1,2.3    C52,30.4,48.2,29.6,48.2,29.5z"/>
		<path class="st4" d="M32.9,35.2c0,0-0.7,5.6,0,6.4c0.7,0.8,2.9,1.9,3.6,0.4c0.7-1.5,1.9-4.7,1.2-5.7s-2.2-1.6-3.1-1.8    C33.7,34.3,33.1,34.1,32.9,35.2z"/>
		<path class="st4" d="M46.1,52.5c0,0-1.9,2.4-1.2,2.9s5,1.6,5.7,1.3s1.3-1.4,0.7-1.9C50.7,54.2,46.2,52.6,46.1,52.5z"/>
		<path class="st4" d="M38.7,37.7c0,0-0.4,2.6-0.7,3.3c-0.3,0.8-0.3,1.1-0.3,1.1s2.2,0.9,3.7,0.5c1.5-0.3,5.3-1.3,5.3,0    s-0.1,9.1-0.1,9.1l4.9,2c0,0-1-2.2-1.2-3.6c-0.2-1.5-0.6-4.4-0.6-4.4l-0.2-0.2c0,0,0.1-1.4,1.1,0.3s3.8,13,5.8,17.1    s9.9,18.6,9.9,18.6s1.5-0.3,2.6-0.2c1.1,0.1,1.6,0,1.6,0s1.3-0.3-0.7-1.8c-1.9-1.5-2.7-1.2-2.7-3.6c0-2.5,0.6-3.3,0.6-3.3    s0.5,3,1.1,3.8c0.6,0.7,4.7,0.2,4.7,0.2S64,65,60.1,59.3s-7.1-8.9-7.1-11c0-2.2,0.3-3.9-0.5-6.2c-0.9-2.4-1-3.3-0.8-6.1    s0.2-4.4,0.2-4.4l-3.3-0.5c0,0-0.1,2.4,0.4,4.1c0.4,1.7,1.2,2.8,1.2,2.8s0,1.5-0.9,0.6s-1.8-3.3-2.8-4.2s-2-3.2-2-3.2l-3,1.7    c0,0,1.2,2.5,2.5,4.1s4.4,3.9,4.4,3.9s0.2,0.9-0.6,0.5c-0.9-0.3-3.5-3-4.5-3.3C42.4,37.4,38.7,37.9,38.7,37.7z"/>
		<path class="st4" d="M91.9,38c0,0-5.2,1.3-6.9,3.1c-1.7,1.7-3.6,3.9-3.4,6.7s1.4,4.1,2.4,4.9l1,0.8c0,0,0-3.1,1.5-3.4    c1.5-0.3,4-0.1,5.3,0.4c1.4,0.5,2.7,1.2,4.5,2c1.8,0.7,3.4,0.8,5,2.6l1.6,1.8c0,0-1.1,0.9-2.2,1.2c-1.2,0.4-3.7,1-4.9,1.5    c-1.2,0.5-2.4,1.4-2.2,2c0.2,0.6,0.6-0.8,2-1.3s4.4-0.5,5.2-0.5c0.8,0,5,0.3,6.8,1.8c1.8,1.4,0.8-0.3,0.5-1.4    c-0.3-1.2-1.2-2.8-1.8-3.6c-0.6-0.8-5.3-4.9-7.4-6s-4.5-1.4-4.3-3.8c0.2-2.3,1.3-3.4,0.9-5.5C94.9,39.2,92,37.9,91.9,38L91.9,38z"/>
		<path class="st4" d="M30.9,159.8c0,0,1.3-1.2,1.5-1.9l0.2-0.8c0,0-2.3-0.9-3.3-0.5s-2.6,1.7-2.5,3.4s0.6,3.3,1.1,3.8s1,0.6,1,0.6    s-0.8-1.8-0.5-3C28.8,160.3,30.8,159.7,30.9,159.8L30.9,159.8z"/>
		<path class="st4" d="M31.4,169.3c0,0-1.1,3.7,0.3,6s4.6,4.4,5,4.2s1-0.6,1-0.6s-1.6-0.8-1.8-1.8c-0.3-1.1-0.8-3.8-0.6-4.2    c0.2-0.3,0.2-0.3,0.2-0.3S31.7,170.6,31.4,169.3L31.4,169.3z"/>
		<path class="st4" d="M43.1,178.6c0,0,0.8,3.9,2,4c1.3,0.1,4.9,0.1,5.3-0.3l0.4-0.4c0,0-0.8,0.1-1.8-0.6c-1-0.7-2.2-1.8-1.8-2.2    l0.4-0.4C47.7,178.6,44.2,179.2,43.1,178.6L43.1,178.6z"/>
		<path class="st4" d="M60.3,156.8c0,0,1.1,0.2,1.7-0.2l0.6-0.4c0,0,0.6,0.8,0.6,1.6c0,0.7-0.1,2.8-0.4,3.4l-0.3,0.6    c0,0,0.4-2.8-0.1-3.5C61.8,157.4,60.6,156.5,60.3,156.8L60.3,156.8z"/>
		<path class="st4" d="M34.4,161.9c0,0-1,1.4-1.8,0.4s-0.8-2.2-0.8-2.2s1.8-1.8,1.8-2.4c0-0.6,0.3-1.7,1.2-1.4    c0.8,0.3,3.9,0.8,4.6,0.4c0.8-0.4,2.3-1.8,2.3-1.8s0.5,1.4-1.1,3.5s-2.3,3.1-3.1,3.1s-1.6-0.6-2.2-0.2    C34.7,161.4,34.4,162,34.4,161.9z"/>
		<path class="st4" d="M32.6,169.8c0,0-1.9-1.5-1.1-2.4c0.8-0.9,2.1-1.2,3.3-1.2s4.4,2.6,4.3,3.2c-0.1,0.7-2.4,3.1-2.4,3.1    L32.6,169.8L32.6,169.8z"/>
		<path class="st4" d="M40.9,177.3c0,0-0.7-0.9,0.2-2.5c1-1.6,1.8-2.5,2.8-2.4c1,0.2,4.9,2.3,4.8,3.2c-0.1,0.9-0.5,2.3-1.9,2.4    C45.4,178.2,42.7,176.6,40.9,177.3L40.9,177.3z"/>
		<path class="st4" d="M57.9,156.6c0,0-1.4-3.8-0.3-4.7c1.2-0.8,2.5-0.8,3.9,0.2c1.4,1.1,1.7,2,1,2.8S58,156.8,57.9,156.6z"/>
		<path class="st4" d="M36.5,165.7c0,0,2.6-2.9,3.3-3.8c0.8-0.9,3.9-5.6,4-6.6s-0.4-1.7,0.9-3.5c1.4-1.8,7.1-5,9-7.8    c2-2.8,6.4-9.8,7.5-13.4c1.2-3.6,3.8-9.8,3.8-9.8s0.5,1,0.8,2.8c0.2,1.8-0.2,3.1-0.2,3.1s1.1-1.6,2.7-2.6s3.9-3.3,3.9-3.3    s0.7,0.7,0.7,3v6.3c0,0-3.9,1.1-5.2,2.5c-1.3,1.4-5.9,6.2-7.7,8.3c-1.8,2.2-5.5,8.6-6.1,9.9l-0.7,1.3c0,0,1.9-1.2,2.7-1.2    s0.2,1.8,0.2,2.8s0.8,4.3-0.6,4.2c-1.4-0.1-3.6-1.3-5.3,0s-3.8,3.6-4.1,5.7c-0.4,2.1,0.5,6.4,0.4,7.6l-0.1,1.2    c0,0-1.5-1.2-2.6-0.8l-1.1,0.4c0,0,0-8.4,0.4-9.5s0.8-1.9,0.8-1.9s-1,0.8-2,2.9c-1,2.1-2.6,4-2.6,4S37.6,165.8,36.5,165.7    L36.5,165.7z"/>
		<path class="st4" d="M55.9,238.8c0,0-2.7-3.3-2-6.2c0.6-3,0.5-3,1.5-2.6l1,0.4c0,0,0.4,2.4,0.4,3.4v0.9c0,0-1,0.1-1.1,1.2    C55.6,237,56,239.1,55.9,238.8z"/>
		<path class="st4" d="M55.4,224.7c0,0,0.4,0,0.8-1.1c0.4-1.1,0.4-2,0.4-2s-2.5-0.3-3.2,0.7s-1.8,2.2-1.5,3.2l0.3,1    c0,0,0.6-2.1,1.6-2C54.7,224.6,55.5,224.8,55.4,224.7z"/>
		<path class="st4" d="M60.5,241c0,0,2.6-0.8,3.9,0.5c1.4,1.3,1.4,1.7,1.4,1.7s-1.5,0.2-1.1,1.4s1.6,2.8,3.2,2.9    c1.6,0.1,2.7,0.1,2.7,0.1s-3.1,1.6-5.6,0.8c-2.5-0.7-4.7-2.3-4.7-4.3C60.2,242.2,60.7,241.1,60.5,241L60.5,241z"/>
		<path class="st4" d="M82.6,234.8c0,0,0-2.3,0.9-3.7c1-1.4,1.8-2.1,1.8-2.1s1,3.1,1,4.7s-0.9,3.1-1.5,4s-1.4,1.4-1.4,1.4    S83.6,237,82.6,234.8L82.6,234.8z"/>
		<path class="st4" d="M169.7,234.3c0,0-2.2-0.9-0.8-3.8c1.3-3,2.9-3.8,4.7-3.8s2.9,0.4,2.9,0.4s0.1,0.9-0.2,1.9    c-0.4,1-1.9,2.4-1.9,2.4s-2.5-0.5-3.2,0C170.4,231.8,169.6,233.6,169.7,234.3z"/>
		<path class="st4" d="M173.5,250c0,0-4.4-3.4-4.6-5.3c-0.2-1.9,0.8-5.4,1.6-5.9s1.5-0.3,1.5-0.3s1.5,3,1.8,4.2    c0.2,1.2-0.3,3.8-0.3,3.8S172,248.4,173.5,250L173.5,250z"/>
		<path class="st4" d="M180.4,244.5c0,0,0.9-1.1,3.4-1c2.5,0.2,4.6,1.5,4.6,1.5s0,2.4,1.3,2.3c1.3-0.1,3.8-0.8,3.8-0.8    s-1.1,1.8-3.7,1.8s-5.9-0.7-7.1-1.7C181.4,245.8,180.3,244.5,180.4,244.5L180.4,244.5z"/>
		<path class="st4" d="M192.3,236.5c0,0,0.6-1.4,2-1.8c1.5-0.4,5.6,0.3,5.6,0.3s1.3,1.4,2,1.7c0.8,0.3,2.1-0.2,2.1-0.2    s-0.2,2.2-4.5,2C195.4,238.4,192.5,236.5,192.3,236.5z"/>
	</g>
	<path class="st5" d="M102.1,41.6c0,0-1.5,1.7-0.5,3.4c1.6,2.7,4,1.3,5,0.1C108.4,42.8,105.1,41.8,102.1,41.6z"/>
	<path class="st2" d="M102.4,42.5c0,0-1.4,0-0.2,2C102.8,45.6,104.8,42.2,102.4,42.5z"/>
</g>
<g>
	<path class="st6" d="M192.4,108c30,0.7,50.5,51-12.4,75.5c20.8-40.7-17.8-25.4-22.9,4.2h-14.9C150.5,127.6,173.2,107.6,192.4,108   L192.4,108z M111.5,200.7c-7.6,17.9-16.9,25.3-26,34.1c10.2,0,20.4-1.9,30.9-10.8c0.2,27.3,4.2,36.6,13.6,45.8   c9.4-8.9,13.7-18.5,13.6-45.8c10.5,8.8,20.7,10.8,30.9,10.8c-9.1-8.8-18.5-16.2-26-34.1H111.5z M130,30.2   c-29.6,31.4-39.9,67.1-17.5,113c6.5,13.3,9.6,28.3,8.7,44.5h17.5c-0.9-16.3,2.2-31.3,8.7-44.5C169.9,97.3,159.6,61.6,130,30.2z    M67.6,108c-30,0.7-50.5,51,12.4,75.5c-20.8-40.7,17.8-25.4,22.9,4.2h14.9C109.5,127.6,86.8,107.6,67.6,108L67.6,108z"/>
	<path class="st7" d="M88.9,187.5h82.2v13.4H88.9V187.5z"/>
</g>
</svg>