<?xml version="1.0" encoding="utf-8"?>
<svg viewBox="753.5 401.9000244140625 278.2000732421875 310.20001220703125" width="278.2000732421875" height="310.20001220703125" xmlns="http://www.w3.org/2000/svg"><path class="st2" d="M978.9,495.8c-23,0-60.3,29.3-75.2,75.9c3.9-53.9,36.3-53.6,36.3-96.4c0-42.8-37.1-42.3-47.4-73.4&#10;&#9;c-10.4,31.1-47.4,30.6-47.4,73.4c0,42.9,32.5,42.5,36.3,96.4c-14.9-46.6-52.2-75.9-75.2-75.9c-30.6,0-52.8,20.6-52.8,45.6&#10;&#9;c0,25,13.3,57.8,56.7,50c-8.7-18.2-10-42.1,9.4-46.7c18.2-4.3,54.9,27.7,58.9,57.3h-18.5c-5.7,0-10.4,4.6-10.4,10.4&#10;&#9;c0,5.7,4.6,10.4,10.4,10.4h16.7c-3.5,11.7-9.2,21.8-18.1,27.1c-21.5,12.8-27.6,0-25.1-6.1c-19.3-2.2-23.9,28.7-3.2,36.1&#10;&#9;c16.4,5.8,45.7-12.3,57.3-57.1h1.8c-7.4,29-13.1,40.3-26.5,53.7c15,8.3,29.6,27.8,29.6,35.6c0-7.8,14.6-27.2,29.6-35.6&#10;&#9;c-13.5-13.5-19.2-24.8-26.5-53.7h1.8c11.6,44.7,40.9,62.9,57.3,57.1c20.8-7.4,16.1-38.4-3.1-36.1c2.5,6.1-3.7,18.9-25.1,6.1&#10;&#9;c-8.9-5.3-14.6-15.4-18.1-27.1h16.7c5.7,0,10.4-4.6,10.4-10.4c0-5.7-4.6-10.4-10.4-10.4h-18.5c4-29.5,40.6-61.5,58.9-57.3&#10;&#9;c19.4,4.6,18.2,28.5,9.5,46.7c43.4,7.8,56.7-25,56.7-50C1031.7,516.4,1009.4,495.8,978.9,495.8z M845.1,475.2&#10;&#9;c0,42.9,32.5,42.5,36.3,96.4 M893.7,602h-2.3c0.7-6.5,1.1-13.4,1.1-20.8C892.5,588.6,892.9,595.5,893.7,602z" style="fill: #add8e6; opacity: 1;" transform="matrix(1, 0, 0, 1, 0, 0)"/></svg>